<?xml version="1.0" encoding="UTF-8" standalone="no"?>
<!DOCTYPE svg PUBLIC "-//W3C//DTD SVG 1.1//EN"
 "http://www.w3.org/Graphics/SVG/1.1/DTD/svg11.dtd">
<!-- Generated by graphviz version 2.42.3 ()
 -->
<!-- Title: graphname Pages: 1 -->
<svg width="584pt" height="939pt"
 viewBox="0.00 0.00 584.00 939.00" xmlns="http://www.w3.org/2000/svg" xmlns:xlink="http://www.w3.org/1999/xlink">
<g id="graph0" class="graph" transform="scale(1 1) rotate(0) translate(4 935)">
<title>graphname</title>
<polygon fill="#fafafa" stroke="transparent" points="-4,4 -4,-935 580,-935 580,4 -4,4"/>
<g id="clust1" class="cluster">
<title>cluster_aws</title>
<polygon fill="#f5f5f5" stroke="#f5f5f5" points="8,-8 8,-923 568,-923 568,-8 8,-8"/>
<text text-anchor="start" x="243" y="-23" font-family="Helvetica,sans-Serif" font-weight="bold" font-size="20.00" fill="#707070">Provider aws</text>
</g>
<g id="clust2" class="cluster">
<title>cluster_aws_</title>
<polygon fill="#eeeeee" stroke="#eeeeee" points="16,-242 16,-915 560,-915 560,-242 16,-242"/>
<text text-anchor="start" x="284" y="-246.2" font-family="Helvetica,sans-Serif" font-size="1.00" fill="#383838"> </text>
</g>
<g id="clust3" class="cluster">
<title>cluster_aws_EKS</title>
<polygon fill="#eeeeee" stroke="#eeeeee" points="68.5,-54 68.5,-234 221.5,-234 221.5,-54 68.5,-54"/>
<text text-anchor="start" x="133.5" y="-65" font-family="Helvetica,sans-Serif" font-weight="bold" font-size="20.00" fill="#383838">EKS</text>
</g>
<!-- NetworkAcl::::acl&#45;dd3a31a0 -->
<g id="node1" class="node">
<title>NetworkAcl::::acl&#45;dd3a31a0</title>
<polygon fill="#e5e5e5" stroke="#dddddd" points="202.5,-679 87.5,-679 87.5,-621 202.5,-621 202.5,-679"/>
<text text-anchor="start" x="100" y="-659.2" font-family="Helvetica,sans-Serif" font-weight="bold" font-size="16.00" fill="#707070">NetworkAcl</text>
<text text-anchor="start" x="100" y="-634.2" font-family="Helvetica,sans-Serif" font-size="16.00" fill="#383838">acl&#45;dd3a31a0</text>
</g>
<!-- Vpc::::vpc&#45;904ceced -->
<g id="node4" class="node">
<title>Vpc::::vpc&#45;904ceced</title>
<polygon fill="#e5e5e5" stroke="#dddddd" points="552,-565 475,-565 475,-507 552,-507 552,-565"/>
<text text-anchor="start" x="487.5" y="-545.2" font-family="Helvetica,sans-Serif" font-weight="bold" font-size="16.00" fill="#707070">Vpc</text>
<text text-anchor="start" x="487.5" y="-520.2" font-family="Helvetica,sans-Serif" font-size="16.00" fill="#383838">default</text>
</g>
<!-- NetworkAcl::::acl&#45;dd3a31a0&#45;&gt;Vpc::::vpc&#45;904ceced -->
<g id="edge1" class="edge">
<title>NetworkAcl::::acl&#45;dd3a31a0&#45;&gt;Vpc::::vpc&#45;904ceced</title>
<path fill="none" stroke="#707070" d="M202.71,-639.09C225.3,-632.04 249.74,-620.57 266,-602 308.9,-553.02 250.62,-499.98 302,-460 326.03,-441.3 410.97,-448.11 439,-460 457.96,-468.04 474.43,-483.64 486.93,-498.62"/>
<polygon fill="#707070" stroke="#707070" points="484.5,-501.18 493.47,-506.83 489.98,-496.82 484.5,-501.18"/>
</g>
<!-- Subnet::::subnet&#45;c113348c -->
<g id="node6" class="node">
<title>Subnet::::subnet&#45;c113348c</title>
<polygon fill="#e5e5e5" stroke="#dddddd" points="409,-527 332,-527 332,-469 409,-469 409,-527"/>
<text text-anchor="start" x="344.5" y="-507.2" font-family="Helvetica,sans-Serif" font-weight="bold" font-size="16.00" fill="#707070">Subnet</text>
<text text-anchor="start" x="344.5" y="-482.2" font-family="Helvetica,sans-Serif" font-size="16.00" fill="#383838">default</text>
</g>
<!-- NetworkAcl::::acl&#45;dd3a31a0&#45;&gt;Subnet::::subnet&#45;c113348c -->
<g id="edge2" class="edge">
<title>NetworkAcl::::acl&#45;dd3a31a0&#45;&gt;Subnet::::subnet&#45;c113348c</title>
<path fill="none" stroke="#707070" d="M202.69,-636.24C224.36,-628.84 248.13,-617.86 266,-602 290.99,-579.82 278.53,-559.78 302,-536 308.11,-529.81 315.44,-524.32 322.99,-519.57"/>
<polygon fill="#707070" stroke="#707070" points="325.04,-522.43 331.89,-514.34 321.49,-516.39 325.04,-522.43"/>
</g>
<!-- Subnet::::subnet&#45;5fe2396e -->
<g id="node7" class="node">
<title>Subnet::::subnet&#45;5fe2396e</title>
<polygon fill="#e5e5e5" stroke="#dddddd" points="409,-603 332,-603 332,-545 409,-545 409,-603"/>
<text text-anchor="start" x="344.5" y="-583.2" font-family="Helvetica,sans-Serif" font-weight="bold" font-size="16.00" fill="#707070">Subnet</text>
<text text-anchor="start" x="344.5" y="-558.2" font-family="Helvetica,sans-Serif" font-size="16.00" fill="#383838">default</text>
</g>
<!-- NetworkAcl::::acl&#45;dd3a31a0&#45;&gt;Subnet::::subnet&#45;5fe2396e -->
<g id="edge7" class="edge">
<title>NetworkAcl::::acl&#45;dd3a31a0&#45;&gt;Subnet::::subnet&#45;5fe2396e</title>
<path fill="none" stroke="#707070" d="M202.69,-630.72C239.69,-618.14 287.42,-601.91 322.34,-590.03"/>
<polygon fill="#707070" stroke="#707070" points="323.49,-593.34 331.83,-586.81 321.24,-586.71 323.49,-593.34"/>
</g>
<!-- Subnet::::subnet&#45;79c08e77 -->
<g id="node8" class="node">
<title>Subnet::::subnet&#45;79c08e77</title>
<polygon fill="#e5e5e5" stroke="#dddddd" points="409,-679 332,-679 332,-621 409,-621 409,-679"/>
<text text-anchor="start" x="344.5" y="-659.2" font-family="Helvetica,sans-Serif" font-weight="bold" font-size="16.00" fill="#707070">Subnet</text>
<text text-anchor="start" x="344.5" y="-634.2" font-family="Helvetica,sans-Serif" font-size="16.00" fill="#383838">default</text>
</g>
<!-- NetworkAcl::::acl&#45;dd3a31a0&#45;&gt;Subnet::::subnet&#45;79c08e77 -->
<g id="edge4" class="edge">
<title>NetworkAcl::::acl&#45;dd3a31a0&#45;&gt;Subnet::::subnet&#45;79c08e77</title>
<path fill="none" stroke="#707070" d="M202.69,-650C239.37,-650 286.61,-650 321.45,-650"/>
<polygon fill="#707070" stroke="#707070" points="321.83,-653.5 331.83,-650 321.83,-646.5 321.83,-653.5"/>
</g>
<!-- Subnet::::subnet&#45;7e2fbe21 -->
<g id="node9" class="node">
<title>Subnet::::subnet&#45;7e2fbe21</title>
<polygon fill="#e5e5e5" stroke="#dddddd" points="409,-755 332,-755 332,-697 409,-697 409,-755"/>
<text text-anchor="start" x="344.5" y="-735.2" font-family="Helvetica,sans-Serif" font-weight="bold" font-size="16.00" fill="#707070">Subnet</text>
<text text-anchor="start" x="344.5" y="-710.2" font-family="Helvetica,sans-Serif" font-size="16.00" fill="#383838">default</text>
</g>
<!-- NetworkAcl::::acl&#45;dd3a31a0&#45;&gt;Subnet::::subnet&#45;7e2fbe21 -->
<g id="edge6" class="edge">
<title>NetworkAcl::::acl&#45;dd3a31a0&#45;&gt;Subnet::::subnet&#45;7e2fbe21</title>
<path fill="none" stroke="#707070" d="M202.69,-669.28C239.69,-681.86 287.42,-698.09 322.34,-709.97"/>
<polygon fill="#707070" stroke="#707070" points="321.24,-713.29 331.83,-713.19 323.49,-706.66 321.24,-713.29"/>
</g>
<!-- Subnet::::subnet&#45;4914802f -->
<g id="node10" class="node">
<title>Subnet::::subnet&#45;4914802f</title>
<polygon fill="#e5e5e5" stroke="#dddddd" points="409,-831 332,-831 332,-773 409,-773 409,-831"/>
<text text-anchor="start" x="344.5" y="-811.2" font-family="Helvetica,sans-Serif" font-weight="bold" font-size="16.00" fill="#707070">Subnet</text>
<text text-anchor="start" x="344.5" y="-786.2" font-family="Helvetica,sans-Serif" font-size="16.00" fill="#383838">default</text>
</g>
<!-- NetworkAcl::::acl&#45;dd3a31a0&#45;&gt;Subnet::::subnet&#45;4914802f -->
<g id="edge3" class="edge">
<title>NetworkAcl::::acl&#45;dd3a31a0&#45;&gt;Subnet::::subnet&#45;4914802f</title>
<path fill="none" stroke="#707070" d="M183.26,-679.16C214.33,-703 260.11,-737.04 302,-764 308.68,-768.3 315.87,-772.64 322.98,-776.77"/>
<polygon fill="#707070" stroke="#707070" points="321.48,-779.94 331.9,-781.87 324.95,-773.87 321.48,-779.94"/>
</g>
<!-- Subnet::::subnet&#45;b1bb2990 -->
<g id="node11" class="node">
<title>Subnet::::subnet&#45;b1bb2990</title>
<polygon fill="#e5e5e5" stroke="#dddddd" points="409,-907 332,-907 332,-849 409,-849 409,-907"/>
<text text-anchor="start" x="344.5" y="-887.2" font-family="Helvetica,sans-Serif" font-weight="bold" font-size="16.00" fill="#707070">Subnet</text>
<text text-anchor="start" x="344.5" y="-862.2" font-family="Helvetica,sans-Serif" font-size="16.00" fill="#383838">default</text>
</g>
<!-- NetworkAcl::::acl&#45;dd3a31a0&#45;&gt;Subnet::::subnet&#45;b1bb2990 -->
<g id="edge5" class="edge">
<title>NetworkAcl::::acl&#45;dd3a31a0&#45;&gt;Subnet::::subnet&#45;b1bb2990</title>
<path fill="none" stroke="#707070" d="M164.86,-679.24C191.71,-719.21 244.13,-791.45 302,-840 308.44,-845.4 315.76,-850.44 323.15,-854.95"/>
<polygon fill="#707070" stroke="#707070" points="321.41,-857.99 331.81,-860.01 324.94,-851.95 321.41,-857.99"/>
</g>
<!-- Domain::::starhack.it -->
<g id="node2" class="node">
<title>Domain::::starhack.it</title>
<polygon fill="#e5e5e5" stroke="#dddddd" points="198.5,-593 91.5,-593 91.5,-535 198.5,-535 198.5,-593"/>
<text text-anchor="start" x="104" y="-573.2" font-family="Helvetica,sans-Serif" font-weight="bold" font-size="16.00" fill="#707070">Domain</text>
<text text-anchor="start" x="104" y="-548.2" font-family="Helvetica,sans-Serif" font-size="16.00" fill="#383838">starhack.it</text>
</g>
<!-- Role::::arn:aws:iam::594073614517:role/OrganizationAccountAccessRole -->
<g id="node3" class="node">
<title>Role::::arn:aws:iam::594073614517:role/OrganizationAccountAccessRole</title>
<polygon fill="#e5e5e5" stroke="#dddddd" points="266,-498 24,-498 24,-440 266,-440 266,-498"/>
<text text-anchor="start" x="36" y="-478.2" font-family="Helvetica,sans-Serif" font-weight="bold" font-size="16.00" fill="#707070">Role</text>
<text text-anchor="start" x="36" y="-453.2" font-family="Helvetica,sans-Serif" font-size="16.00" fill="#383838">OrganizationAccountAccessRole</text>
</g>
<!-- InternetGateway::::igw&#45;7bdccb00 -->
<g id="node5" class="node">
<title>InternetGateway::::igw&#45;7bdccb00</title>
<polygon fill="#e5e5e5" stroke="#dddddd" points="439,-431 302,-431 302,-373 439,-373 439,-431"/>
<text text-anchor="start" x="314.5" y="-411.2" font-family="Helvetica,sans-Serif" font-weight="bold" font-size="16.00" fill="#707070">InternetGateway</text>
<text text-anchor="start" x="314.5" y="-386.2" font-family="Helvetica,sans-Serif" font-size="16.00" fill="#383838">igw&#45;7bdccb00</text>
</g>
<!-- InternetGateway::::igw&#45;7bdccb00&#45;&gt;Vpc::::vpc&#45;904ceced -->
<g id="edge8" class="edge">
<title>InternetGateway::::igw&#45;7bdccb00&#45;&gt;Vpc::::vpc&#45;904ceced</title>
<path fill="none" stroke="#707070" d="M421.51,-431.23C427.63,-435.55 433.61,-440.19 439,-445 456.7,-460.82 473.56,-481.16 486.65,-498.6"/>
<polygon fill="#707070" stroke="#707070" points="484.02,-500.92 492.77,-506.89 489.65,-496.77 484.02,-500.92"/>
</g>
<!-- Subnet::::subnet&#45;c113348c&#45;&gt;Vpc::::vpc&#45;904ceced -->
<g id="edge9" class="edge">
<title>Subnet::::subnet&#45;c113348c&#45;&gt;Vpc::::vpc&#45;904ceced</title>
<path fill="none" stroke="#707070" d="M409.29,-508.18C426.35,-512.78 446.71,-518.27 464.82,-523.15"/>
<polygon fill="#707070" stroke="#707070" points="464.04,-526.57 474.61,-525.79 465.87,-519.81 464.04,-526.57"/>
</g>
<!-- Subnet::::subnet&#45;5fe2396e&#45;&gt;Vpc::::vpc&#45;904ceced -->
<g id="edge10" class="edge">
<title>Subnet::::subnet&#45;5fe2396e&#45;&gt;Vpc::::vpc&#45;904ceced</title>
<path fill="none" stroke="#707070" d="M409.29,-563.82C426.35,-559.22 446.71,-553.73 464.82,-548.85"/>
<polygon fill="#707070" stroke="#707070" points="465.87,-552.19 474.61,-546.21 464.04,-545.43 465.87,-552.19"/>
</g>
<!-- Subnet::::subnet&#45;79c08e77&#45;&gt;Vpc::::vpc&#45;904ceced -->
<g id="edge11" class="edge">
<title>Subnet::::subnet&#45;79c08e77&#45;&gt;Vpc::::vpc&#45;904ceced</title>
<path fill="none" stroke="#707070" d="M409.15,-631.33C419.22,-625.67 429.85,-619.07 439,-612 453.94,-600.47 468.73,-585.94 481.09,-572.68"/>
<polygon fill="#707070" stroke="#707070" points="483.9,-574.79 488.07,-565.05 478.74,-570.07 483.9,-574.79"/>
</g>
<!-- Subnet::::subnet&#45;7e2fbe21&#45;&gt;Vpc::::vpc&#45;904ceced -->
<g id="edge12" class="edge">
<title>Subnet::::subnet&#45;7e2fbe21&#45;&gt;Vpc::::vpc&#45;904ceced</title>
<path fill="none" stroke="#707070" d="M409.03,-710.11C419.67,-704.3 430.62,-696.92 439,-688 469.47,-655.57 489.65,-608.16 501.02,-574.93"/>
<polygon fill="#707070" stroke="#707070" points="504.46,-575.7 504.27,-565.11 497.81,-573.5 504.46,-575.7"/>
</g>
<!-- Subnet::::subnet&#45;4914802f&#45;&gt;Vpc::::vpc&#45;904ceced -->
<g id="edge13" class="edge">
<title>Subnet::::subnet&#45;4914802f&#45;&gt;Vpc::::vpc&#45;904ceced</title>
<path fill="none" stroke="#707070" d="M409.12,-787.18C420.02,-781.35 431.09,-773.69 439,-764 484.35,-708.49 501.95,-624.38 508.61,-575.34"/>
<polygon fill="#707070" stroke="#707070" points="512.12,-575.5 509.91,-565.14 505.17,-574.61 512.12,-575.5"/>
</g>
<!-- Subnet::::subnet&#45;b1bb2990&#45;&gt;Vpc::::vpc&#45;904ceced -->
<g id="edge14" class="edge">
<title>Subnet::::subnet&#45;b1bb2990&#45;&gt;Vpc::::vpc&#45;904ceced</title>
<path fill="none" stroke="#707070" d="M409.22,-863.72C420.25,-857.88 431.37,-850.08 439,-840 499.39,-760.18 510.92,-637.69 512.64,-575.36"/>
<polygon fill="#707070" stroke="#707070" points="516.14,-575.24 512.85,-565.17 509.15,-575.1 516.14,-575.24"/>
</g>
<!-- RouteTable::::rtb&#45;461d3238 -->
<g id="node12" class="node">
<title>RouteTable::::rtb&#45;461d3238</title>
<polygon fill="#e5e5e5" stroke="#dddddd" points="202.5,-412 87.5,-412 87.5,-354 202.5,-354 202.5,-412"/>
<text text-anchor="start" x="100" y="-392.2" font-family="Helvetica,sans-Serif" font-weight="bold" font-size="16.00" fill="#707070">RouteTable</text>
<text text-anchor="start" x="100" y="-367.2" font-family="Helvetica,sans-Serif" font-size="16.00" fill="#383838">rtb&#45;461d3238</text>
</g>
<!-- RouteTable::::rtb&#45;461d3238&#45;&gt;Vpc::::vpc&#45;904ceced -->
<g id="edge15" class="edge">
<title>RouteTable::::rtb&#45;461d3238&#45;&gt;Vpc::::vpc&#45;904ceced</title>
<path fill="none" stroke="#707070" d="M202.67,-371.41C276.76,-357.59 401.51,-339.25 439,-364 483.47,-393.36 501.13,-455.75 508.08,-496.76"/>
<polygon fill="#707070" stroke="#707070" points="504.63,-497.35 509.62,-506.7 511.54,-496.28 504.63,-497.35"/>
</g>
<!-- RouteTable::::rtb&#45;461d3238&#45;&gt;InternetGateway::::igw&#45;7bdccb00 -->
<g id="edge16" class="edge">
<title>RouteTable::::rtb&#45;461d3238&#45;&gt;InternetGateway::::igw&#45;7bdccb00</title>
<path fill="none" stroke="#707070" d="M202.69,-387.82C229.64,-390.11 262.29,-392.89 291.54,-395.37"/>
<polygon fill="#707070" stroke="#707070" points="291.47,-398.88 301.73,-396.24 292.06,-391.9 291.47,-398.88"/>
</g>
<!-- HostedZone::::/hostedzone/Z09429703J0B6XPB98IZ9 -->
<g id="node13" class="node">
<title>HostedZone::::/hostedzone/Z09429703J0B6XPB98IZ9</title>
<polygon fill="#e5e5e5" stroke="#dddddd" points="202.5,-327 87.5,-327 87.5,-269 202.5,-269 202.5,-327"/>
<text text-anchor="start" x="100" y="-307.2" font-family="Helvetica,sans-Serif" font-weight="bold" font-size="16.00" fill="#707070">HostedZone</text>
<text text-anchor="start" x="100" y="-282.2" font-family="Helvetica,sans-Serif" font-size="16.00" fill="#383838">starhack.it.</text>
</g>
<!-- Role::EKS::arn:aws:iam::594073614517:role/role&#45;cluster -->
<g id="node14" class="node">
<title>Role::EKS::arn:aws:iam::594073614517:role/role&#45;cluster</title>
<polygon fill="#e5e5e5" stroke="#dddddd" points="202.5,-226 87.5,-226 87.5,-168 202.5,-168 202.5,-226"/>
<text text-anchor="start" x="100" y="-206.2" font-family="Helvetica,sans-Serif" font-weight="bold" font-size="16.00" fill="#707070">Role</text>
<text text-anchor="start" x="100" y="-181.2" font-family="Helvetica,sans-Serif" font-size="16.00" fill="#383838">role&#45;cluster</text>
</g>
<!-- Role::EKS::arn:aws:iam::594073614517:role/role&#45;node&#45;group -->
<g id="node15" class="node">
<title>Role::EKS::arn:aws:iam::594073614517:role/role&#45;node&#45;group</title>
<polygon fill="#e5e5e5" stroke="#dddddd" points="213.5,-150 76.5,-150 76.5,-92 213.5,-92 213.5,-150"/>
<text text-anchor="start" x="89" y="-130.2" font-family="Helvetica,sans-Serif" font-weight="bold" font-size="16.00" fill="#707070">Role</text>
<text text-anchor="start" x="89" y="-105.2" font-family="Helvetica,sans-Serif" font-size="16.00" fill="#383838">role&#45;node&#45;group</text>
</g>
<!-- SecurityGroup::::sg&#45;15c54c1e -->
<g id="node16" class="node">
<title>SecurityGroup::::sg&#45;15c54c1e</title>
<polygon fill="#e5e5e5" stroke="#dddddd" points="431.5,-317 309.5,-317 309.5,-259 431.5,-259 431.5,-317"/>
<text text-anchor="start" x="321.5" y="-297.2" font-family="Helvetica,sans-Serif" font-weight="bold" font-size="16.00" fill="#707070">SecurityGroup</text>
<text text-anchor="start" x="321.5" y="-272.2" font-family="Helvetica,sans-Serif" font-size="16.00" fill="#383838">default</text>
</g>
<!-- SecurityGroup::::sg&#45;15c54c1e&#45;&gt;Vpc::::vpc&#45;904ceced -->
<g id="edge17" class="edge">
<title>SecurityGroup::::sg&#45;15c54c1e&#45;&gt;Vpc::::vpc&#45;904ceced</title>
<path fill="none" stroke="#707070" d="M409.99,-317.25C420.41,-326.54 431,-337.44 439,-349 470.95,-395.18 491.78,-457.23 502.84,-496.93"/>
<polygon fill="#707070" stroke="#707070" points="499.52,-498.03 505.51,-506.76 506.27,-496.19 499.52,-498.03"/>
</g>
<!-- SecurityGroup::::sg&#45;15c54c1e&#45;&gt;SecurityGroup::::sg&#45;15c54c1e -->
<g id="edge18" class="edge">
<title>SecurityGroup::::sg&#45;15c54c1e&#45;&gt;SecurityGroup::::sg&#45;15c54c1e</title>
<path fill="none" stroke="#707070" d="M343.88,-317.38C343.88,-327.17 352.75,-335 370.5,-335 381.87,-335 389.6,-331.79 393.69,-326.9"/>
<polygon fill="#707070" stroke="#707070" points="397.02,-327.97 397.12,-317.38 390.44,-325.59 397.02,-327.97"/>
</g>
</g>
</svg>
